<svg width="16" height="16" viewBox="0 0 16 16" fill="none" xmlns="http://www.w3.org/2000/svg">
<g clip-path="url(#clip0_3107_1912)">
<path d="M14.71 4.70903H11.8214C11.683 4.70903 11.5502 4.65406 11.4524 4.5562C11.3545 4.45834 11.2996 4.32562 11.2996 4.18724V1.33332C11.2996 1.19493 11.3545 1.06221 11.4524 0.964353C11.5502 0.866498 11.683 0.811523 11.8214 0.811523H12.9548C14.2122 0.811523 15.2318 1.83047 15.2318 3.08785V4.18724C15.2318 4.32562 15.1769 4.45834 15.079 4.5562C14.9812 4.65406 14.8484 4.70903 14.71 4.70903Z" fill="#131316"/>
<path d="M0.806641 12.923V6.55133C0.806641 6.48281 0.820137 6.41496 0.846359 6.35165C0.872582 6.28834 0.911017 6.23082 0.95947 6.18237C1.00792 6.13392 1.06544 6.09548 1.12875 6.06926C1.19206 6.04304 1.25991 6.02954 1.32843 6.02954H4.20118C4.33957 6.02954 4.47229 6.08452 4.57015 6.18237C4.668 6.28023 4.72298 6.41294 4.72298 6.55133V14.6782C4.72298 14.8166 4.668 14.9493 4.57015 15.0472C4.47229 15.1451 4.33957 15.2 4.20118 15.2H3.08368C1.82631 15.2 0.806641 14.1804 0.806641 12.923Z" fill="#131316"/>
<path d="M6.052 12.923V6.55133C6.052 6.41294 6.10698 6.28023 6.20483 6.18237C6.30269 6.08452 6.43541 6.02954 6.57379 6.02954H9.44655C9.58493 6.02954 9.71765 6.08452 9.81551 6.18237C9.91336 6.28023 9.96834 6.41294 9.96834 6.55133V14.6782C9.96834 14.8166 9.91336 14.9493 9.81551 15.0472C9.71765 15.1451 9.58493 15.2 9.44655 15.2H8.32904C7.07167 15.2 6.052 14.1804 6.052 12.923Z" fill="#131316"/>
<path d="M11.2976 12.923V6.55133C11.2976 6.41294 11.3526 6.28023 11.4504 6.18237C11.5483 6.08452 11.681 6.02954 11.8194 6.02954H14.6921C14.8305 6.02954 14.9632 6.08452 15.0611 6.18237C15.1589 6.28023 15.2139 6.41294 15.2139 6.55133V14.6782C15.2139 14.8166 15.1589 14.9493 15.0611 15.0472C14.9632 15.1451 14.8305 15.2 14.6921 15.2H13.5746C12.3173 15.2 11.2976 14.1804 11.2976 12.923Z" fill="#131316"/>
<path d="M7.73914 0.805846L1.32329 0.800049C1.18503 0.800049 1.05242 0.854923 0.954584 0.952622C0.85675 1.05032 0.801691 1.18285 0.801499 1.32112L0.800049 2.46688C0.799325 3.69817 1.79652 4.69827 3.02853 4.69899L9.44438 4.70551C9.58284 4.70551 9.71563 4.65056 9.8136 4.55273C9.91157 4.45489 9.96671 4.32218 9.9669 4.18372V3.03868C9.96907 1.80667 8.97115 0.807296 7.73914 0.805846Z" fill="#131316"/>
</g>
<defs>
<clipPath id="clip0_3107_1912">
<rect width="16" height="16" fill="white"/>
</clipPath>
</defs>
</svg>
